<svg xmlns="http://www.w3.org/2000/svg" viewBox="0 0 24 30" x="0px" y="0px"><defs><style>.cls-1{stroke-width:0px;}</style></defs><path class="cls-1" d="m18.25,2.25H6.75c-1.24,0-2.25,1.009-2.25,2.25v1.75h1.75c.414,0,.75.336.75.75s-.336.75-.75.75h-1.75v3.5h1.75c.414,0,.75.336.75.75s-.336.75-.75.75h-1.75v3.5h1.75c.414,0,.75.336.75.75s-.336.75-.75.75h-1.75v1.75c0,1.241,1.01,2.25,2.25,2.25h11.5c1.24,0,2.25-1.009,2.25-2.25V4.5c0-1.241-1.01-2.25-2.25-2.25Zm-4.75,5.5c1.517,0,2.75,1.233,2.75,2.75s-1.233,2.75-2.75,2.75-2.75-1.233-2.75-2.75,1.233-2.75,2.75-2.75Zm3,8.5h-6c-.41,0-.75-.34-.75-.75,0-.78.24-1.51.65-2.11.77.84,1.88,1.36,3.1,1.36s2.33-.52,3.1-1.36c.41.6.65,1.33.65,2.11,0,.41-.34.75-.75.75Zm-12,0v1.5h-.25c-.414,0-.75-.336-.75-.75s.336-.75.75-.75h.25Zm0-10v1.5h-.25c-.414,0-.75-.336-.75-.75s.336-.75.75-.75h.25Zm0,5v1.5h-.25c-.414,0-.75-.336-.75-.75s.336-.75.75-.75h.25Z"/><text x="0" y="39" fill="#000000" font-size="5px" font-weight="bold" font-family="'Helvetica Neue', Helvetica, Arial-Unicode, Arial, Sans-serif">Created by Saepul Nahwan</text><text x="0" y="44" fill="#000000" font-size="5px" font-weight="bold" font-family="'Helvetica Neue', Helvetica, Arial-Unicode, Arial, Sans-serif">from the Noun Project</text></svg>